<svg id="home" width="43" height="38" viewBox="0 0 43 38" fill="none" xmlns="http://www.w3.org/2000/svg">
    <path fill-rule="evenodd" clip-rule="evenodd" d="M20.5485 0.554052C21.2585 -0.12194 22.3737 -0.12194 23.0837 0.554052L37.7867 14.557L42.3814 18.933C43.1164 19.6328 43.1447 20.7962 42.4447 21.5314C41.7448 22.2663 40.5814 22.2946 39.8463 21.5946L38.357 20.1763V34.0479C38.357 36.078 36.7114 37.7237 34.6813 37.7237H25.4918H18.1403H8.9509C6.92083 37.7237 5.27513 36.078 5.27513 34.0479V20.1763L3.78582 21.5946C3.05078 22.2946 1.88745 22.2663 1.18743 21.5314C0.487402 20.7962 0.515775 19.6328 1.2508 18.933L5.8455 14.557L20.5485 0.554052ZM8.9509 16.6755V34.0479H16.3024V24.8585C16.3024 21.8133 18.7709 19.3448 21.8161 19.3448C24.8613 19.3448 27.3297 21.8133 27.3297 24.8585V34.0479H34.6813V16.6755L21.8161 4.42296L8.9509 16.6755ZM23.654 34.0479V24.8585C23.654 23.8434 22.8311 23.0206 21.8161 23.0206C20.801 23.0206 19.9782 23.8434 19.9782 24.8585V34.0479H23.654Z" fill="white"/>
</svg>
<svg id="download" width="28" height="39" viewBox="0 0 28 39" fill="none" xmlns="http://www.w3.org/2000/svg">
    <path d="M3.22986 36.2601H25.2845M14.2572 3.17816V28.9085M14.2572 28.9085L23.4466 19.7191M14.2572 28.9085L5.06774 19.7191" stroke="white" stroke-width="5" stroke-linecap="round" stroke-linejoin="round"/>
</svg>
<svg id="customer-service" width="45" height="45" viewBox="0 0 45 45" fill="none" xmlns="http://www.w3.org/2000/svg">
    <path d="M44.8707 0.548843H0.761475V44.658H44.8707V0.548843Z" fill="white" fill-opacity="0.01"/>
    <path d="M33.8434 29.955C37.9035 29.955 41.1949 26.6636 41.1949 22.6035C41.1949 18.5433 37.9035 15.2519 33.8434 15.2519" stroke="white" stroke-width="5" stroke-linejoin="round"/>
    <path d="M11.7888 15.2519C7.72865 15.2519 4.43726 18.5433 4.43726 22.6035C4.43726 26.6636 7.72865 29.955 11.7888 29.955" stroke="white" stroke-width="5" stroke-linejoin="round"/>
    <path d="M11.7888 29.955V29.4955V27.1982V22.6035V15.2519C11.7888 9.16171 16.7259 4.22462 22.8161 4.22462C28.9063 4.22462 33.8434 9.16171 33.8434 15.2519V29.955C33.8434 36.0452 28.9063 40.9823 22.8161 40.9823" stroke="white" stroke-width="5" stroke-linecap="round" stroke-linejoin="round"/>
</svg>
<svg id="community" width="45" height="26" viewBox="0 0 45 26" fill="none" xmlns="http://www.w3.org/2000/svg">
    <path d="M22.8103 11.7692C26.0718 11.7692 28.6936 9.13239 28.6936 5.8917C28.6973 2.64154 26.0718 0.0122375 22.8103 0.0122375C19.5715 0.0122375 16.9423 2.64154 16.9423 5.8917C16.9423 9.13625 19.5716 11.7692 22.8103 11.7692Z" fill="white"/>
    <path d="M27.5294 12.7271H18.1064C16.4217 12.7271 15.0417 14.2717 15.0417 16.1665V25.6312C15.0417 25.7353 15.0948 25.828 15.1005 25.936H30.5297C30.541 25.8281 30.5847 25.7354 30.5847 25.6312V16.1665C30.5903 14.2717 29.2103 12.7271 27.5294 12.7271Z" fill="white"/>
    <path d="M38.6353 14.5746C41.2532 14.5746 43.3525 12.4678 43.3525 9.86497C43.3525 7.26217 41.2532 5.15158 38.6353 5.15158C36.0363 5.15158 33.9332 7.26217 33.9332 9.86497C33.9276 12.4659 36.0364 14.5746 38.6353 14.5746Z" fill="white"/>
    <path d="M42.4192 15.3431H34.8683C33.513 15.3431 32.4056 16.5811 32.4056 18.105V25.6881C32.4056 25.7695 32.4453 25.8471 32.451 25.9361H44.8271C44.8328 25.8471 44.8706 25.7695 44.8706 25.6881V18.105C44.8763 16.5811 43.7708 15.3431 42.4192 15.3431Z" fill="white"/>
    <path d="M6.99303 14.5746C9.60715 14.5746 11.7083 12.4678 11.7083 9.86497C11.7083 7.26217 9.60715 5.15158 6.99303 5.15158C4.39216 5.15158 2.28912 7.26217 2.28912 9.86497C2.28912 12.4678 4.39216 14.5746 6.99303 14.5746Z" fill="white"/>
    <path d="M10.7751 15.3431H3.21658C1.86508 15.3431 0.761475 16.5811 0.761475 18.105V25.6881C0.761475 25.7695 0.801227 25.8471 0.808774 25.9361H13.1848C13.1905 25.8471 13.2265 25.7695 13.2265 25.6881V18.105C13.2303 16.5811 12.1247 15.3431 10.7751 15.3431Z" fill="white"/>
</svg>